<mxfile host="app.diagrams.net" modified="2023-07-26T16:32:48.229Z" agent="Mozilla/5.0 (Windows NT 10.0; Win64; x64) AppleWebKit/537.36 (KHTML, like Gecko) Chrome/114.0.0.0 Safari/537.36" etag="zZ9nt6SBAqa3WYRcDlck" version="21.6.5" type="github">
  <diagram name="第 1 页" id="K2aoj24qo6fCBiK2xhCu">
    <mxGraphModel dx="1620" dy="1645" grid="1" gridSize="10" guides="1" tooltips="1" connect="1" arrows="1" fold="1" page="1" pageScale="1" pageWidth="827" pageHeight="1169" math="0" shadow="0">
      <root>
        <mxCell id="0" />
        <mxCell id="1" parent="0" />
        <mxCell id="bhpVkIt2kxP38X_LNIEm-8" value="" style="rounded=0;whiteSpace=wrap;html=1;opacity=70;" vertex="1" parent="1">
          <mxGeometry x="210" y="230" width="490" height="150" as="geometry" />
        </mxCell>
        <mxCell id="bhpVkIt2kxP38X_LNIEm-3" value="" style="rounded=0;whiteSpace=wrap;html=1;opacity=70;" vertex="1" parent="1">
          <mxGeometry x="213.5" y="70" width="470" height="150" as="geometry" />
        </mxCell>
        <mxCell id="P5Fd3_mxE8bLp7_tiNSp-10" value="" style="edgeStyle=orthogonalEdgeStyle;rounded=0;orthogonalLoop=1;jettySize=auto;html=1;" parent="1" source="P5Fd3_mxE8bLp7_tiNSp-1" target="P5Fd3_mxE8bLp7_tiNSp-9" edge="1">
          <mxGeometry relative="1" as="geometry" />
        </mxCell>
        <mxCell id="P5Fd3_mxE8bLp7_tiNSp-1" value="&lt;font style=&quot;font-size: 15px;&quot;&gt;activityPartake&lt;/font&gt;" style="rounded=0;whiteSpace=wrap;html=1;" parent="1" vertex="1">
          <mxGeometry x="50" y="150" width="120" height="40" as="geometry" />
        </mxCell>
        <mxCell id="P5Fd3_mxE8bLp7_tiNSp-9" value="&lt;font style=&quot;font-size: 15px;&quot;&gt;doPartake&lt;/font&gt;" style="rounded=1;whiteSpace=wrap;html=1;glass=0;shadow=0;" parent="1" vertex="1">
          <mxGeometry x="230" y="150" width="120" height="40" as="geometry" />
        </mxCell>
        <mxCell id="P5Fd3_mxE8bLp7_tiNSp-16" value="&lt;div data-darkreader-inline-color=&quot;&quot; data-darkreader-inline-bgcolor=&quot;&quot; style=&quot;background-color: rgb(40, 42, 54); color: rgb(248, 248, 242); --darkreader-inline-bgcolor: #20222b; --darkreader-inline-color: #e8e8d5;&quot;&gt;&lt;font style=&quot;font-size: 15px;&quot;&gt;doDrawProcess&lt;/font&gt;&lt;/div&gt;" style="rounded=1;whiteSpace=wrap;html=1;glass=0;shadow=0;" parent="1" vertex="1">
          <mxGeometry x="-150" y="320" width="120" height="40" as="geometry" />
        </mxCell>
        <mxCell id="P5Fd3_mxE8bLp7_tiNSp-20" value="" style="strokeWidth=2;html=1;shape=mxgraph.flowchart.annotation_2;align=left;labelPosition=right;pointerEvents=1;sketch=1;curveFitting=1;jiggle=2;" parent="1" vertex="1">
          <mxGeometry x="-30" y="130" width="50" height="420" as="geometry" />
        </mxCell>
        <mxCell id="P5Fd3_mxE8bLp7_tiNSp-42" value="PartakeReq" style="swimlane;whiteSpace=wrap;html=1;" parent="1" vertex="1">
          <mxGeometry x="350" y="100" width="150" height="100" as="geometry" />
        </mxCell>
        <mxCell id="P5Fd3_mxE8bLp7_tiNSp-43" value="用户ID" style="text;strokeColor=none;fillColor=none;align=left;verticalAlign=middle;spacingLeft=4;spacingRight=4;overflow=hidden;points=[[0,0.5],[1,0.5]];portConstraint=eastwest;rotatable=0;whiteSpace=wrap;html=1;" parent="P5Fd3_mxE8bLp7_tiNSp-42" vertex="1">
          <mxGeometry x="10" y="30" width="100" height="20" as="geometry" />
        </mxCell>
        <mxCell id="P5Fd3_mxE8bLp7_tiNSp-44" value="活动ID" style="text;strokeColor=none;fillColor=none;align=left;verticalAlign=middle;spacingLeft=4;spacingRight=4;overflow=hidden;points=[[0,0.5],[1,0.5]];portConstraint=eastwest;rotatable=0;whiteSpace=wrap;html=1;" parent="P5Fd3_mxE8bLp7_tiNSp-42" vertex="1">
          <mxGeometry x="10" y="50" width="140" height="20" as="geometry" />
        </mxCell>
        <mxCell id="P5Fd3_mxE8bLp7_tiNSp-56" value="活动领取时间(自动生成)" style="text;strokeColor=none;fillColor=none;align=left;verticalAlign=middle;spacingLeft=4;spacingRight=4;overflow=hidden;points=[[0,0.5],[1,0.5]];portConstraint=eastwest;rotatable=0;whiteSpace=wrap;html=1;" parent="P5Fd3_mxE8bLp7_tiNSp-42" vertex="1">
          <mxGeometry x="10" y="70" width="140" height="20" as="geometry" />
        </mxCell>
        <mxCell id="P5Fd3_mxE8bLp7_tiNSp-45" value="DrawProcessReq" style="swimlane;whiteSpace=wrap;html=1;" parent="1" vertex="1">
          <mxGeometry x="-160" y="230" width="130" height="70" as="geometry" />
        </mxCell>
        <mxCell id="P5Fd3_mxE8bLp7_tiNSp-46" value="用户ID" style="text;strokeColor=none;fillColor=none;align=left;verticalAlign=middle;spacingLeft=4;spacingRight=4;overflow=hidden;points=[[0,0.5],[1,0.5]];portConstraint=eastwest;rotatable=0;whiteSpace=wrap;html=1;" parent="P5Fd3_mxE8bLp7_tiNSp-45" vertex="1">
          <mxGeometry x="10" y="30" width="100" height="20" as="geometry" />
        </mxCell>
        <mxCell id="P5Fd3_mxE8bLp7_tiNSp-47" value="活动ID" style="text;strokeColor=none;fillColor=none;align=left;verticalAlign=middle;spacingLeft=4;spacingRight=4;overflow=hidden;points=[[0,0.5],[1,0.5]];portConstraint=eastwest;rotatable=0;whiteSpace=wrap;html=1;" parent="P5Fd3_mxE8bLp7_tiNSp-45" vertex="1">
          <mxGeometry x="10" y="50" width="140" height="20" as="geometry" />
        </mxCell>
        <mxCell id="P5Fd3_mxE8bLp7_tiNSp-58" value="" style="edgeStyle=orthogonalEdgeStyle;rounded=0;orthogonalLoop=1;jettySize=auto;html=1;" parent="1" source="P5Fd3_mxE8bLp7_tiNSp-48" target="P5Fd3_mxE8bLp7_tiNSp-57" edge="1">
          <mxGeometry relative="1" as="geometry" />
        </mxCell>
        <mxCell id="P5Fd3_mxE8bLp7_tiNSp-48" value="&lt;font style=&quot;font-size: 15px;&quot;&gt;drawExec&lt;/font&gt;" style="rounded=0;whiteSpace=wrap;html=1;" parent="1" vertex="1">
          <mxGeometry x="50" y="245" width="120" height="40" as="geometry" />
        </mxCell>
        <mxCell id="P5Fd3_mxE8bLp7_tiNSp-49" value="DrawProcessReq" style="swimlane;whiteSpace=wrap;html=1;" parent="1" vertex="1">
          <mxGeometry x="-160" y="370" width="150" height="80" as="geometry" />
        </mxCell>
        <mxCell id="P5Fd3_mxE8bLp7_tiNSp-50" value="奖品的各种信息" style="text;strokeColor=none;fillColor=none;align=left;verticalAlign=middle;spacingLeft=4;spacingRight=4;overflow=hidden;points=[[0,0.5],[1,0.5]];portConstraint=eastwest;rotatable=0;whiteSpace=wrap;html=1;" parent="P5Fd3_mxE8bLp7_tiNSp-49" vertex="1">
          <mxGeometry x="10" y="30" width="100" height="20" as="geometry" />
        </mxCell>
        <mxCell id="P5Fd3_mxE8bLp7_tiNSp-85" value="Reusult [code, info]" style="text;strokeColor=none;fillColor=none;align=left;verticalAlign=middle;spacingLeft=4;spacingRight=4;overflow=hidden;points=[[0,0.5],[1,0.5]];portConstraint=eastwest;rotatable=0;whiteSpace=wrap;html=1;" parent="P5Fd3_mxE8bLp7_tiNSp-49" vertex="1">
          <mxGeometry x="10" y="50" width="140" height="20" as="geometry" />
        </mxCell>
        <mxCell id="P5Fd3_mxE8bLp7_tiNSp-53" value="ActivityConfigReq" style="swimlane;whiteSpace=wrap;html=1;" parent="1" vertex="1">
          <mxGeometry x="143.5" y="-250" width="150" height="80" as="geometry" />
        </mxCell>
        <mxCell id="P5Fd3_mxE8bLp7_tiNSp-54" value="活动配置信息" style="text;strokeColor=none;fillColor=none;align=left;verticalAlign=middle;spacingLeft=4;spacingRight=4;overflow=hidden;points=[[0,0.5],[1,0.5]];portConstraint=eastwest;rotatable=0;whiteSpace=wrap;html=1;" parent="P5Fd3_mxE8bLp7_tiNSp-53" vertex="1">
          <mxGeometry y="50" width="100" height="20" as="geometry" />
        </mxCell>
        <mxCell id="P5Fd3_mxE8bLp7_tiNSp-55" value="活动ID" style="text;strokeColor=none;fillColor=none;align=left;verticalAlign=middle;spacingLeft=4;spacingRight=4;overflow=hidden;points=[[0,0.5],[1,0.5]];portConstraint=eastwest;rotatable=0;whiteSpace=wrap;html=1;" parent="P5Fd3_mxE8bLp7_tiNSp-53" vertex="1">
          <mxGeometry y="30" width="140" height="20" as="geometry" />
        </mxCell>
        <mxCell id="P5Fd3_mxE8bLp7_tiNSp-63" value="PartakeResult" style="swimlane;whiteSpace=wrap;html=1;" parent="1" vertex="1">
          <mxGeometry x="500" y="100" width="150" height="100" as="geometry" />
        </mxCell>
        <mxCell id="P5Fd3_mxE8bLp7_tiNSp-64" value="策略ID" style="text;strokeColor=none;fillColor=none;align=left;verticalAlign=middle;spacingLeft=4;spacingRight=4;overflow=hidden;points=[[0,0.5],[1,0.5]];portConstraint=eastwest;rotatable=0;whiteSpace=wrap;html=1;" parent="P5Fd3_mxE8bLp7_tiNSp-63" vertex="1">
          <mxGeometry x="10" y="30" width="100" height="20" as="geometry" />
        </mxCell>
        <mxCell id="P5Fd3_mxE8bLp7_tiNSp-65" value="活动领取ID Long takeId" style="text;strokeColor=none;fillColor=none;align=left;verticalAlign=middle;spacingLeft=4;spacingRight=4;overflow=hidden;points=[[0,0.5],[1,0.5]];portConstraint=eastwest;rotatable=0;whiteSpace=wrap;html=1;" parent="P5Fd3_mxE8bLp7_tiNSp-63" vertex="1">
          <mxGeometry x="10" y="50" width="140" height="20" as="geometry" />
        </mxCell>
        <mxCell id="P5Fd3_mxE8bLp7_tiNSp-66" value="Reusult [code, info]" style="text;strokeColor=none;fillColor=none;align=left;verticalAlign=middle;spacingLeft=4;spacingRight=4;overflow=hidden;points=[[0,0.5],[1,0.5]];portConstraint=eastwest;rotatable=0;whiteSpace=wrap;html=1;" parent="P5Fd3_mxE8bLp7_tiNSp-63" vertex="1">
          <mxGeometry x="10" y="70" width="140" height="20" as="geometry" />
        </mxCell>
        <mxCell id="P5Fd3_mxE8bLp7_tiNSp-83" value="" style="endArrow=classic;html=1;rounded=0;dashed=1;fillColor=#f8cecc;strokeColor=#b85450;" parent="P5Fd3_mxE8bLp7_tiNSp-63" target="P5Fd3_mxE8bLp7_tiNSp-62" edge="1">
          <mxGeometry width="50" height="50" relative="1" as="geometry">
            <mxPoint x="20" y="60" as="sourcePoint" />
            <mxPoint x="-30" y="110" as="targetPoint" />
          </mxGeometry>
        </mxCell>
        <mxCell id="P5Fd3_mxE8bLp7_tiNSp-67" value="ActivityConfigRich" style="swimlane;whiteSpace=wrap;html=1;" parent="1" vertex="1">
          <mxGeometry x="303.5" y="-250" width="190" height="100" as="geometry" />
        </mxCell>
        <mxCell id="P5Fd3_mxE8bLp7_tiNSp-68" value="策略配置&amp;nbsp;&amp;nbsp;StrategyVO" style="text;strokeColor=none;fillColor=none;align=left;verticalAlign=middle;spacingLeft=4;spacingRight=4;overflow=hidden;points=[[0,0.5],[1,0.5]];portConstraint=eastwest;rotatable=0;whiteSpace=wrap;html=1;" parent="P5Fd3_mxE8bLp7_tiNSp-67" vertex="1">
          <mxGeometry y="50" width="160" height="20" as="geometry" />
        </mxCell>
        <mxCell id="P5Fd3_mxE8bLp7_tiNSp-69" value="活动配置&amp;nbsp; &amp;nbsp;ActivityVO" style="text;strokeColor=none;fillColor=none;align=left;verticalAlign=middle;spacingLeft=4;spacingRight=4;overflow=hidden;points=[[0,0.5],[1,0.5]];portConstraint=eastwest;rotatable=0;whiteSpace=wrap;html=1;" parent="P5Fd3_mxE8bLp7_tiNSp-67" vertex="1">
          <mxGeometry y="30" width="150" height="20" as="geometry" />
        </mxCell>
        <mxCell id="P5Fd3_mxE8bLp7_tiNSp-70" value="奖品配置&amp;nbsp;&amp;nbsp;List&amp;lt;AwardVO&amp;gt;List" style="text;strokeColor=none;fillColor=none;align=left;verticalAlign=middle;spacingLeft=4;spacingRight=4;overflow=hidden;points=[[0,0.5],[1,0.5]];portConstraint=eastwest;rotatable=0;whiteSpace=wrap;html=1;" parent="P5Fd3_mxE8bLp7_tiNSp-67" vertex="1">
          <mxGeometry y="70" width="190" height="20" as="geometry" />
        </mxCell>
        <mxCell id="P5Fd3_mxE8bLp7_tiNSp-78" value="StrategyRich" style="swimlane;whiteSpace=wrap;html=1;" parent="1" vertex="1">
          <mxGeometry x="503.5" y="-250" width="160" height="100" as="geometry" />
        </mxCell>
        <mxCell id="P5Fd3_mxE8bLp7_tiNSp-80" value="策略ID" style="text;strokeColor=none;fillColor=none;align=left;verticalAlign=middle;spacingLeft=4;spacingRight=4;overflow=hidden;points=[[0,0.5],[1,0.5]];portConstraint=eastwest;rotatable=0;whiteSpace=wrap;html=1;" parent="P5Fd3_mxE8bLp7_tiNSp-78" vertex="1">
          <mxGeometry y="30" width="140" height="20" as="geometry" />
        </mxCell>
        <mxCell id="P5Fd3_mxE8bLp7_tiNSp-81" value="策略配置&amp;nbsp;&amp;nbsp;StrategyVO" style="text;strokeColor=none;fillColor=none;align=left;verticalAlign=middle;spacingLeft=4;spacingRight=4;overflow=hidden;points=[[0,0.5],[1,0.5]];portConstraint=eastwest;rotatable=0;whiteSpace=wrap;html=1;" parent="P5Fd3_mxE8bLp7_tiNSp-78" vertex="1">
          <mxGeometry y="50" width="160" height="20" as="geometry" />
        </mxCell>
        <mxCell id="P5Fd3_mxE8bLp7_tiNSp-82" value="策略明细&amp;nbsp;&amp;nbsp;" style="text;strokeColor=none;fillColor=none;align=left;verticalAlign=middle;spacingLeft=4;spacingRight=4;overflow=hidden;points=[[0,0.5],[1,0.5]];portConstraint=eastwest;rotatable=0;whiteSpace=wrap;html=1;" parent="P5Fd3_mxE8bLp7_tiNSp-78" vertex="1">
          <mxGeometry y="70" width="160" height="20" as="geometry" />
        </mxCell>
        <mxCell id="P5Fd3_mxE8bLp7_tiNSp-88" value="" style="edgeStyle=orthogonalEdgeStyle;rounded=0;orthogonalLoop=1;jettySize=auto;html=1;" parent="1" source="P5Fd3_mxE8bLp7_tiNSp-86" target="P5Fd3_mxE8bLp7_tiNSp-87" edge="1">
          <mxGeometry relative="1" as="geometry" />
        </mxCell>
        <mxCell id="P5Fd3_mxE8bLp7_tiNSp-86" value="&lt;font style=&quot;font-size: 15px;&quot;&gt;activityPartake&lt;/font&gt;" style="rounded=0;whiteSpace=wrap;html=1;" parent="1" vertex="1">
          <mxGeometry x="50" y="390" width="120" height="40" as="geometry" />
        </mxCell>
        <mxCell id="P5Fd3_mxE8bLp7_tiNSp-98" value="" style="edgeStyle=orthogonalEdgeStyle;rounded=0;orthogonalLoop=1;jettySize=auto;html=1;" parent="1" source="P5Fd3_mxE8bLp7_tiNSp-87" target="P5Fd3_mxE8bLp7_tiNSp-97" edge="1">
          <mxGeometry relative="1" as="geometry" />
        </mxCell>
        <mxCell id="P5Fd3_mxE8bLp7_tiNSp-99" value="use" style="edgeLabel;html=1;align=center;verticalAlign=middle;resizable=0;points=[];" parent="P5Fd3_mxE8bLp7_tiNSp-98" vertex="1" connectable="0">
          <mxGeometry x="-0.0667" y="2" relative="1" as="geometry">
            <mxPoint as="offset" />
          </mxGeometry>
        </mxCell>
        <mxCell id="P5Fd3_mxE8bLp7_tiNSp-87" value="&lt;font style=&quot;font-size: 15px;&quot;&gt;recordDrawOrder&lt;/font&gt;" style="rounded=1;whiteSpace=wrap;html=1;glass=0;shadow=0;" parent="1" vertex="1">
          <mxGeometry x="220" y="390" width="140" height="40" as="geometry" />
        </mxCell>
        <mxCell id="P5Fd3_mxE8bLp7_tiNSp-89" value="DrawOrderVO" style="swimlane;whiteSpace=wrap;html=1;" parent="1" vertex="1">
          <mxGeometry x="213.5" y="430" width="153" height="165" as="geometry" />
        </mxCell>
        <mxCell id="P5Fd3_mxE8bLp7_tiNSp-90" value="用户ID" style="text;strokeColor=none;fillColor=none;align=left;verticalAlign=middle;spacingLeft=4;spacingRight=4;overflow=hidden;points=[[0,0.5],[1,0.5]];portConstraint=eastwest;rotatable=0;whiteSpace=wrap;html=1;" parent="P5Fd3_mxE8bLp7_tiNSp-89" vertex="1">
          <mxGeometry x="10" y="30" width="100" height="20" as="geometry" />
        </mxCell>
        <mxCell id="P5Fd3_mxE8bLp7_tiNSp-91" value="活动ID" style="text;strokeColor=none;fillColor=none;align=left;verticalAlign=middle;spacingLeft=4;spacingRight=4;overflow=hidden;points=[[0,0.5],[1,0.5]];portConstraint=eastwest;rotatable=0;whiteSpace=wrap;html=1;" parent="P5Fd3_mxE8bLp7_tiNSp-89" vertex="1">
          <mxGeometry x="10" y="50" width="140" height="20" as="geometry" />
        </mxCell>
        <mxCell id="P5Fd3_mxE8bLp7_tiNSp-93" value="活动领取ID Long takeId" style="text;strokeColor=none;fillColor=none;align=left;verticalAlign=middle;spacingLeft=4;spacingRight=4;overflow=hidden;points=[[0,0.5],[1,0.5]];portConstraint=eastwest;rotatable=0;whiteSpace=wrap;html=1;" parent="P5Fd3_mxE8bLp7_tiNSp-89" vertex="1">
          <mxGeometry x="10" y="70" width="140" height="20" as="geometry" />
        </mxCell>
        <mxCell id="P5Fd3_mxE8bLp7_tiNSp-92" value="订单ID" style="text;strokeColor=none;fillColor=none;align=left;verticalAlign=middle;spacingLeft=4;spacingRight=4;overflow=hidden;points=[[0,0.5],[1,0.5]];portConstraint=eastwest;rotatable=0;whiteSpace=wrap;html=1;" parent="P5Fd3_mxE8bLp7_tiNSp-89" vertex="1">
          <mxGeometry x="10" y="90" width="140" height="20" as="geometry" />
        </mxCell>
        <mxCell id="P5Fd3_mxE8bLp7_tiNSp-94" value="策略ID" style="text;strokeColor=none;fillColor=none;align=left;verticalAlign=middle;spacingLeft=4;spacingRight=4;overflow=hidden;points=[[0,0.5],[1,0.5]];portConstraint=eastwest;rotatable=0;whiteSpace=wrap;html=1;" parent="P5Fd3_mxE8bLp7_tiNSp-89" vertex="1">
          <mxGeometry x="10" y="110" width="140" height="20" as="geometry" />
        </mxCell>
        <mxCell id="P5Fd3_mxE8bLp7_tiNSp-96" value="drawAwardInfo" style="text;strokeColor=none;fillColor=none;align=left;verticalAlign=middle;spacingLeft=4;spacingRight=4;overflow=hidden;points=[[0,0.5],[1,0.5]];portConstraint=eastwest;rotatable=0;whiteSpace=wrap;html=1;" parent="P5Fd3_mxE8bLp7_tiNSp-89" vertex="1">
          <mxGeometry x="9" y="131" width="140" height="20" as="geometry" />
        </mxCell>
        <mxCell id="P5Fd3_mxE8bLp7_tiNSp-101" value="" style="edgeStyle=orthogonalEdgeStyle;rounded=0;orthogonalLoop=1;jettySize=auto;html=1;entryX=0;entryY=0.5;entryDx=0;entryDy=0;" parent="1" source="P5Fd3_mxE8bLp7_tiNSp-97" target="P5Fd3_mxE8bLp7_tiNSp-100" edge="1">
          <mxGeometry relative="1" as="geometry" />
        </mxCell>
        <mxCell id="P5Fd3_mxE8bLp7_tiNSp-114" style="edgeStyle=orthogonalEdgeStyle;rounded=0;orthogonalLoop=1;jettySize=auto;html=1;exitX=1;exitY=0.5;exitDx=0;exitDy=0;entryX=0;entryY=0.5;entryDx=0;entryDy=0;" parent="1" source="P5Fd3_mxE8bLp7_tiNSp-97" target="P5Fd3_mxE8bLp7_tiNSp-109" edge="1">
          <mxGeometry relative="1" as="geometry">
            <Array as="points">
              <mxPoint x="640" y="510" />
              <mxPoint x="640" y="600" />
            </Array>
          </mxGeometry>
        </mxCell>
        <mxCell id="P5Fd3_mxE8bLp7_tiNSp-97" value="&lt;font style=&quot;font-size: 15px;&quot;&gt;userTakeActivityRepository&lt;/font&gt;" style="rounded=0;whiteSpace=wrap;html=1;" parent="1" vertex="1">
          <mxGeometry x="413.5" y="490" width="205" height="40" as="geometry" />
        </mxCell>
        <mxCell id="P5Fd3_mxE8bLp7_tiNSp-100" value="&lt;font style=&quot;font-size: 15px;&quot;&gt;lockTackActivity&lt;/font&gt;" style="rounded=1;whiteSpace=wrap;html=1;glass=0;shadow=0;" parent="1" vertex="1">
          <mxGeometry x="670" y="420" width="140" height="40" as="geometry" />
        </mxCell>
        <mxCell id="P5Fd3_mxE8bLp7_tiNSp-102" value="DrawOrderVO(部分)" style="swimlane;whiteSpace=wrap;html=1;" parent="1" vertex="1">
          <mxGeometry x="663.5" y="450" width="153" height="100" as="geometry" />
        </mxCell>
        <mxCell id="P5Fd3_mxE8bLp7_tiNSp-103" value="用户ID" style="text;strokeColor=none;fillColor=none;align=left;verticalAlign=middle;spacingLeft=4;spacingRight=4;overflow=hidden;points=[[0,0.5],[1,0.5]];portConstraint=eastwest;rotatable=0;whiteSpace=wrap;html=1;" parent="P5Fd3_mxE8bLp7_tiNSp-102" vertex="1">
          <mxGeometry x="10" y="30" width="100" height="20" as="geometry" />
        </mxCell>
        <mxCell id="P5Fd3_mxE8bLp7_tiNSp-104" value="活动ID" style="text;strokeColor=none;fillColor=none;align=left;verticalAlign=middle;spacingLeft=4;spacingRight=4;overflow=hidden;points=[[0,0.5],[1,0.5]];portConstraint=eastwest;rotatable=0;whiteSpace=wrap;html=1;" parent="P5Fd3_mxE8bLp7_tiNSp-102" vertex="1">
          <mxGeometry x="10" y="50" width="140" height="20" as="geometry" />
        </mxCell>
        <mxCell id="P5Fd3_mxE8bLp7_tiNSp-105" value="活动领取ID Long takeId" style="text;strokeColor=none;fillColor=none;align=left;verticalAlign=middle;spacingLeft=4;spacingRight=4;overflow=hidden;points=[[0,0.5],[1,0.5]];portConstraint=eastwest;rotatable=0;whiteSpace=wrap;html=1;" parent="P5Fd3_mxE8bLp7_tiNSp-102" vertex="1">
          <mxGeometry x="10" y="70" width="140" height="20" as="geometry" />
        </mxCell>
        <mxCell id="P5Fd3_mxE8bLp7_tiNSp-109" value="&lt;font style=&quot;font-size: 15px;&quot;&gt;saveUserStrategyExport&lt;/font&gt;" style="rounded=1;whiteSpace=wrap;html=1;glass=0;shadow=0;" parent="1" vertex="1">
          <mxGeometry x="663.5" y="580" width="180" height="40" as="geometry" />
        </mxCell>
        <mxCell id="P5Fd3_mxE8bLp7_tiNSp-115" value="DrawOrderVO" style="swimlane;whiteSpace=wrap;html=1;" parent="1" vertex="1">
          <mxGeometry x="674" y="620" width="153" height="165" as="geometry" />
        </mxCell>
        <mxCell id="P5Fd3_mxE8bLp7_tiNSp-116" value="用户ID" style="text;strokeColor=none;fillColor=none;align=left;verticalAlign=middle;spacingLeft=4;spacingRight=4;overflow=hidden;points=[[0,0.5],[1,0.5]];portConstraint=eastwest;rotatable=0;whiteSpace=wrap;html=1;" parent="P5Fd3_mxE8bLp7_tiNSp-115" vertex="1">
          <mxGeometry x="10" y="30" width="100" height="20" as="geometry" />
        </mxCell>
        <mxCell id="P5Fd3_mxE8bLp7_tiNSp-117" value="活动ID" style="text;strokeColor=none;fillColor=none;align=left;verticalAlign=middle;spacingLeft=4;spacingRight=4;overflow=hidden;points=[[0,0.5],[1,0.5]];portConstraint=eastwest;rotatable=0;whiteSpace=wrap;html=1;" parent="P5Fd3_mxE8bLp7_tiNSp-115" vertex="1">
          <mxGeometry x="10" y="50" width="140" height="20" as="geometry" />
        </mxCell>
        <mxCell id="P5Fd3_mxE8bLp7_tiNSp-118" value="活动领取ID Long takeId" style="text;strokeColor=none;fillColor=none;align=left;verticalAlign=middle;spacingLeft=4;spacingRight=4;overflow=hidden;points=[[0,0.5],[1,0.5]];portConstraint=eastwest;rotatable=0;whiteSpace=wrap;html=1;" parent="P5Fd3_mxE8bLp7_tiNSp-115" vertex="1">
          <mxGeometry x="10" y="70" width="140" height="20" as="geometry" />
        </mxCell>
        <mxCell id="P5Fd3_mxE8bLp7_tiNSp-119" value="订单ID" style="text;strokeColor=none;fillColor=none;align=left;verticalAlign=middle;spacingLeft=4;spacingRight=4;overflow=hidden;points=[[0,0.5],[1,0.5]];portConstraint=eastwest;rotatable=0;whiteSpace=wrap;html=1;" parent="P5Fd3_mxE8bLp7_tiNSp-115" vertex="1">
          <mxGeometry x="10" y="90" width="140" height="20" as="geometry" />
        </mxCell>
        <mxCell id="P5Fd3_mxE8bLp7_tiNSp-120" value="策略ID" style="text;strokeColor=none;fillColor=none;align=left;verticalAlign=middle;spacingLeft=4;spacingRight=4;overflow=hidden;points=[[0,0.5],[1,0.5]];portConstraint=eastwest;rotatable=0;whiteSpace=wrap;html=1;" parent="P5Fd3_mxE8bLp7_tiNSp-115" vertex="1">
          <mxGeometry x="10" y="110" width="140" height="20" as="geometry" />
        </mxCell>
        <mxCell id="P5Fd3_mxE8bLp7_tiNSp-121" value="drawAwardInfo" style="text;strokeColor=none;fillColor=none;align=left;verticalAlign=middle;spacingLeft=4;spacingRight=4;overflow=hidden;points=[[0,0.5],[1,0.5]];portConstraint=eastwest;rotatable=0;whiteSpace=wrap;html=1;" parent="P5Fd3_mxE8bLp7_tiNSp-115" vertex="1">
          <mxGeometry x="9" y="131" width="140" height="20" as="geometry" />
        </mxCell>
        <mxCell id="P5Fd3_mxE8bLp7_tiNSp-122" value="user_strategy_export_00x" style="shape=cylinder3;whiteSpace=wrap;html=1;boundedLbl=1;backgroundOutline=1;size=15;" parent="1" vertex="1">
          <mxGeometry x="890" y="640" width="150" height="80" as="geometry" />
        </mxCell>
        <mxCell id="P5Fd3_mxE8bLp7_tiNSp-123" value="" style="edgeStyle=orthogonalEdgeStyle;rounded=0;orthogonalLoop=1;jettySize=auto;html=1;" parent="1" source="P5Fd3_mxE8bLp7_tiNSp-117" target="P5Fd3_mxE8bLp7_tiNSp-122" edge="1">
          <mxGeometry relative="1" as="geometry" />
        </mxCell>
        <mxCell id="P5Fd3_mxE8bLp7_tiNSp-124" value="存入" style="edgeLabel;html=1;align=center;verticalAlign=middle;resizable=0;points=[];" parent="P5Fd3_mxE8bLp7_tiNSp-123" vertex="1" connectable="0">
          <mxGeometry x="0.1643" relative="1" as="geometry">
            <mxPoint as="offset" />
          </mxGeometry>
        </mxCell>
        <mxCell id="P5Fd3_mxE8bLp7_tiNSp-125" value="user_take_activity" style="shape=cylinder3;whiteSpace=wrap;html=1;boundedLbl=1;backgroundOutline=1;size=15;" parent="1" vertex="1">
          <mxGeometry x="900" y="470" width="150" height="80" as="geometry" />
        </mxCell>
        <mxCell id="P5Fd3_mxE8bLp7_tiNSp-126" value="" style="edgeStyle=orthogonalEdgeStyle;rounded=0;orthogonalLoop=1;jettySize=auto;html=1;" parent="1" source="P5Fd3_mxE8bLp7_tiNSp-104" target="P5Fd3_mxE8bLp7_tiNSp-125" edge="1">
          <mxGeometry relative="1" as="geometry" />
        </mxCell>
        <mxCell id="P5Fd3_mxE8bLp7_tiNSp-127" value="更新" style="edgeLabel;html=1;align=center;verticalAlign=middle;resizable=0;points=[];" parent="P5Fd3_mxE8bLp7_tiNSp-126" vertex="1" connectable="0">
          <mxGeometry x="-0.0035" y="2" relative="1" as="geometry">
            <mxPoint as="offset" />
          </mxGeometry>
        </mxCell>
        <mxCell id="P5Fd3_mxE8bLp7_tiNSp-128" value="SET state = 1" style="text;strokeColor=none;fillColor=none;align=left;verticalAlign=middle;spacingLeft=4;spacingRight=4;overflow=hidden;points=[[0,0.5],[1,0.5]];portConstraint=eastwest;rotatable=0;whiteSpace=wrap;html=1;" parent="1" vertex="1">
          <mxGeometry x="930" y="480" width="100" height="20" as="geometry" />
        </mxCell>
        <mxCell id="bhpVkIt2kxP38X_LNIEm-1" value="user_take_activity" style="shape=cylinder3;whiteSpace=wrap;html=1;boundedLbl=1;backgroundOutline=1;size=15;" vertex="1" parent="1">
          <mxGeometry x="170" y="-80" width="106.5" height="80" as="geometry" />
        </mxCell>
        <mxCell id="bhpVkIt2kxP38X_LNIEm-6" value="" style="endArrow=classic;html=1;rounded=0;exitX=0.5;exitY=1;exitDx=0;exitDy=0;exitPerimeter=0;entryX=0.043;entryY=-0.003;entryDx=0;entryDy=0;entryPerimeter=0;" edge="1" parent="1" source="bhpVkIt2kxP38X_LNIEm-1" target="bhpVkIt2kxP38X_LNIEm-3">
          <mxGeometry width="50" height="50" relative="1" as="geometry">
            <mxPoint x="290" y="80" as="sourcePoint" />
            <mxPoint x="290" y="60" as="targetPoint" />
          </mxGeometry>
        </mxCell>
        <mxCell id="bhpVkIt2kxP38X_LNIEm-7" value="查询state==1的活动领取" style="edgeLabel;html=1;align=center;verticalAlign=middle;resizable=0;points=[];" vertex="1" connectable="0" parent="bhpVkIt2kxP38X_LNIEm-6">
          <mxGeometry x="-0.0025" y="1" relative="1" as="geometry">
            <mxPoint as="offset" />
          </mxGeometry>
        </mxCell>
        <mxCell id="P5Fd3_mxE8bLp7_tiNSp-57" value="&lt;font style=&quot;font-size: 15px;&quot;&gt;doDrawExec&lt;/font&gt;" style="rounded=1;whiteSpace=wrap;html=1;glass=0;shadow=0;" parent="1" vertex="1">
          <mxGeometry x="230" y="245" width="120" height="40" as="geometry" />
        </mxCell>
        <mxCell id="P5Fd3_mxE8bLp7_tiNSp-59" value="DrawReq" style="swimlane;whiteSpace=wrap;html=1;" parent="1" vertex="1">
          <mxGeometry x="350" y="230" width="340" height="150" as="geometry" />
        </mxCell>
        <mxCell id="P5Fd3_mxE8bLp7_tiNSp-60" value="用户ID" style="text;strokeColor=none;fillColor=none;align=left;verticalAlign=middle;spacingLeft=4;spacingRight=4;overflow=hidden;points=[[0,0.5],[1,0.5]];portConstraint=eastwest;rotatable=0;whiteSpace=wrap;html=1;" parent="P5Fd3_mxE8bLp7_tiNSp-59" vertex="1">
          <mxGeometry x="10" y="30" width="100" height="20" as="geometry" />
        </mxCell>
        <mxCell id="P5Fd3_mxE8bLp7_tiNSp-61" value="策略ID" style="text;strokeColor=none;fillColor=none;align=left;verticalAlign=middle;spacingLeft=4;spacingRight=4;overflow=hidden;points=[[0,0.5],[1,0.5]];portConstraint=eastwest;rotatable=0;whiteSpace=wrap;html=1;" parent="P5Fd3_mxE8bLp7_tiNSp-59" vertex="1">
          <mxGeometry x="10" y="50" width="140" height="20" as="geometry" />
        </mxCell>
        <mxCell id="P5Fd3_mxE8bLp7_tiNSp-62" value="防重ID&amp;nbsp; String uuid" style="text;strokeColor=none;fillColor=none;align=left;verticalAlign=middle;spacingLeft=4;spacingRight=4;overflow=hidden;points=[[0,0.5],[1,0.5]];portConstraint=eastwest;rotatable=0;whiteSpace=wrap;html=1;" parent="P5Fd3_mxE8bLp7_tiNSp-59" vertex="1">
          <mxGeometry x="10" y="70" width="140" height="20" as="geometry" />
        </mxCell>
        <mxCell id="P5Fd3_mxE8bLp7_tiNSp-73" value="DrawResult" style="swimlane;whiteSpace=wrap;html=1;" parent="1" vertex="1">
          <mxGeometry x="500" y="230" width="190" height="145" as="geometry" />
        </mxCell>
        <mxCell id="P5Fd3_mxE8bLp7_tiNSp-74" value="用户ID" style="text;strokeColor=none;fillColor=none;align=left;verticalAlign=middle;spacingLeft=4;spacingRight=4;overflow=hidden;points=[[0,0.5],[1,0.5]];portConstraint=eastwest;rotatable=0;whiteSpace=wrap;html=1;" parent="P5Fd3_mxE8bLp7_tiNSp-73" vertex="1">
          <mxGeometry x="10" y="30" width="100" height="20" as="geometry" />
        </mxCell>
        <mxCell id="P5Fd3_mxE8bLp7_tiNSp-75" value="策略ID" style="text;strokeColor=none;fillColor=none;align=left;verticalAlign=middle;spacingLeft=4;spacingRight=4;overflow=hidden;points=[[0,0.5],[1,0.5]];portConstraint=eastwest;rotatable=0;whiteSpace=wrap;html=1;" parent="P5Fd3_mxE8bLp7_tiNSp-73" vertex="1">
          <mxGeometry x="10" y="50" width="140" height="20" as="geometry" />
        </mxCell>
        <mxCell id="P5Fd3_mxE8bLp7_tiNSp-76" value="中奖状态&amp;nbsp; drawState" style="text;strokeColor=none;fillColor=none;align=left;verticalAlign=middle;spacingLeft=4;spacingRight=4;overflow=hidden;points=[[0,0.5],[1,0.5]];portConstraint=eastwest;rotatable=0;whiteSpace=wrap;html=1;" parent="P5Fd3_mxE8bLp7_tiNSp-73" vertex="1">
          <mxGeometry x="10" y="70" width="140" height="20" as="geometry" />
        </mxCell>
        <mxCell id="P5Fd3_mxE8bLp7_tiNSp-77" value="中奖奖品信息&amp;nbsp; drawAwardInfo" style="text;strokeColor=none;fillColor=none;align=left;verticalAlign=middle;spacingLeft=4;spacingRight=4;overflow=hidden;points=[[0,0.5],[1,0.5]];portConstraint=eastwest;rotatable=0;whiteSpace=wrap;html=1;" parent="P5Fd3_mxE8bLp7_tiNSp-73" vertex="1">
          <mxGeometry x="10" y="90" width="180" height="20" as="geometry" />
        </mxCell>
        <mxCell id="P5Fd3_mxE8bLp7_tiNSp-84" value="Reusult [code, info]" style="text;strokeColor=none;fillColor=none;align=left;verticalAlign=middle;spacingLeft=4;spacingRight=4;overflow=hidden;points=[[0,0.5],[1,0.5]];portConstraint=eastwest;rotatable=0;whiteSpace=wrap;html=1;" parent="P5Fd3_mxE8bLp7_tiNSp-73" vertex="1">
          <mxGeometry x="10" y="110" width="140" height="20" as="geometry" />
        </mxCell>
        <mxCell id="bhpVkIt2kxP38X_LNIEm-10" value="" style="endArrow=classic;html=1;rounded=0;exitX=0.5;exitY=1;exitDx=0;exitDy=0;exitPerimeter=0;entryX=0.25;entryY=0;entryDx=0;entryDy=0;" edge="1" parent="1" source="bhpVkIt2kxP38X_LNIEm-11" target="bhpVkIt2kxP38X_LNIEm-3">
          <mxGeometry width="50" height="50" relative="1" as="geometry">
            <mxPoint x="400" y="70" as="sourcePoint" />
            <mxPoint x="449" y="30" as="targetPoint" />
          </mxGeometry>
        </mxCell>
        <mxCell id="bhpVkIt2kxP38X_LNIEm-13" value="" style="group" vertex="1" connectable="0" parent="1">
          <mxGeometry x="303.5" y="-80" width="138.25" height="80" as="geometry" />
        </mxCell>
        <mxCell id="bhpVkIt2kxP38X_LNIEm-11" value="user_take_activity_count" style="shape=cylinder3;whiteSpace=wrap;html=1;boundedLbl=1;backgroundOutline=1;size=15;" vertex="1" parent="bhpVkIt2kxP38X_LNIEm-13">
          <mxGeometry width="138.25" height="80" as="geometry" />
        </mxCell>
        <mxCell id="bhpVkIt2kxP38X_LNIEm-15" value="activity" style="shape=cylinder3;whiteSpace=wrap;html=1;boundedLbl=1;backgroundOutline=1;size=15;" vertex="1" parent="1">
          <mxGeometry x="462.75" y="-80" width="106.5" height="80" as="geometry" />
        </mxCell>
        <mxCell id="bhpVkIt2kxP38X_LNIEm-16" value="" style="endArrow=classic;html=1;rounded=0;entryX=0.5;entryY=1;entryDx=0;entryDy=0;entryPerimeter=0;exitX=0.641;exitY=-0.008;exitDx=0;exitDy=0;exitPerimeter=0;" edge="1" parent="1" source="bhpVkIt2kxP38X_LNIEm-3" target="bhpVkIt2kxP38X_LNIEm-15">
          <mxGeometry width="50" height="50" relative="1" as="geometry">
            <mxPoint x="570" y="70" as="sourcePoint" />
            <mxPoint x="620" y="20" as="targetPoint" />
          </mxGeometry>
        </mxCell>
        <mxCell id="bhpVkIt2kxP38X_LNIEm-18" value="扣减活动库存" style="edgeLabel;html=1;align=center;verticalAlign=middle;resizable=0;points=[];" vertex="1" connectable="0" parent="bhpVkIt2kxP38X_LNIEm-16">
          <mxGeometry x="0.0224" relative="1" as="geometry">
            <mxPoint as="offset" />
          </mxGeometry>
        </mxCell>
        <mxCell id="bhpVkIt2kxP38X_LNIEm-19" value="" style="endArrow=classic;html=1;rounded=0;exitX=0.145;exitY=1;exitDx=0;exitDy=-4.35;exitPerimeter=0;entryX=0.25;entryY=0;entryDx=0;entryDy=0;" edge="1" parent="1" source="bhpVkIt2kxP38X_LNIEm-15" target="bhpVkIt2kxP38X_LNIEm-3">
          <mxGeometry width="50" height="50" relative="1" as="geometry">
            <mxPoint x="373" y="10" as="sourcePoint" />
            <mxPoint x="341" y="80" as="targetPoint" />
          </mxGeometry>
        </mxCell>
        <mxCell id="bhpVkIt2kxP38X_LNIEm-20" value="查询活动账单&lt;br&gt;(活动信息 领取次数)" style="edgeLabel;html=1;align=center;verticalAlign=middle;resizable=0;points=[];" vertex="1" connectable="0" parent="bhpVkIt2kxP38X_LNIEm-19">
          <mxGeometry x="-0.0773" relative="1" as="geometry">
            <mxPoint x="-20" as="offset" />
          </mxGeometry>
        </mxCell>
        <mxCell id="bhpVkIt2kxP38X_LNIEm-29" value="" style="edgeStyle=orthogonalEdgeStyle;rounded=0;orthogonalLoop=1;jettySize=auto;html=1;exitX=0.835;exitY=0.003;exitDx=0;exitDy=0;exitPerimeter=0;entryX=0.5;entryY=0;entryDx=0;entryDy=0;entryPerimeter=0;" edge="1" parent="1" source="bhpVkIt2kxP38X_LNIEm-3" target="bhpVkIt2kxP38X_LNIEm-1">
          <mxGeometry relative="1" as="geometry">
            <mxPoint x="690" y="40" as="sourcePoint" />
            <mxPoint x="690" y="-120" as="targetPoint" />
            <Array as="points">
              <mxPoint x="606" y="-130" />
              <mxPoint x="223" y="-130" />
            </Array>
          </mxGeometry>
        </mxCell>
        <mxCell id="bhpVkIt2kxP38X_LNIEm-33" value="插入活动领取信息" style="edgeLabel;html=1;align=center;verticalAlign=middle;resizable=0;points=[];" vertex="1" connectable="0" parent="bhpVkIt2kxP38X_LNIEm-29">
          <mxGeometry x="0.9052" relative="1" as="geometry">
            <mxPoint as="offset" />
          </mxGeometry>
        </mxCell>
        <mxCell id="bhpVkIt2kxP38X_LNIEm-32" value="" style="endArrow=classic;html=1;rounded=0;" edge="1" parent="1" target="bhpVkIt2kxP38X_LNIEm-11">
          <mxGeometry width="50" height="50" relative="1" as="geometry">
            <mxPoint x="373" y="-130" as="sourcePoint" />
            <mxPoint x="410" y="-110" as="targetPoint" />
          </mxGeometry>
        </mxCell>
        <mxCell id="bhpVkIt2kxP38X_LNIEm-35" value="扣减个人已参与次数" style="edgeLabel;html=1;align=center;verticalAlign=middle;resizable=0;points=[];" vertex="1" connectable="0" parent="bhpVkIt2kxP38X_LNIEm-32">
          <mxGeometry x="-0.1998" y="-1" relative="1" as="geometry">
            <mxPoint as="offset" />
          </mxGeometry>
        </mxCell>
      </root>
    </mxGraphModel>
  </diagram>
</mxfile>
